<mxfile host="app.diagrams.net" modified="2022-07-14T16:52:12.823Z" agent="5.0 (Windows NT 10.0; Win64; x64) AppleWebKit/537.36 (KHTML, like Gecko) Chrome/103.0.0.0 Safari/537.36" etag="_pLmeA9WGNsh9ytFrhmC" version="20.1.1" type="github">
  <diagram id="Ocq-ExmO33kxEdjQf5_I" name="Page-1">
    <mxGraphModel dx="1920" dy="576" grid="1" gridSize="10" guides="1" tooltips="1" connect="1" arrows="1" fold="1" page="1" pageScale="1" pageWidth="827" pageHeight="1169" math="0" shadow="0">
      <root>
        <mxCell id="0" />
        <mxCell id="1" parent="0" />
        <mxCell id="zzlCp59lul93_jBRYsYe-9" style="edgeStyle=orthogonalEdgeStyle;rounded=0;orthogonalLoop=1;jettySize=auto;html=1;exitX=0.5;exitY=1;exitDx=0;exitDy=0;entryX=0.5;entryY=0;entryDx=0;entryDy=0;" edge="1" parent="1" source="zzlCp59lul93_jBRYsYe-1" target="zzlCp59lul93_jBRYsYe-2">
          <mxGeometry relative="1" as="geometry" />
        </mxCell>
        <mxCell id="zzlCp59lul93_jBRYsYe-10" style="edgeStyle=orthogonalEdgeStyle;rounded=0;orthogonalLoop=1;jettySize=auto;html=1;exitX=0.5;exitY=1;exitDx=0;exitDy=0;entryX=0.5;entryY=0;entryDx=0;entryDy=0;" edge="1" parent="1" source="zzlCp59lul93_jBRYsYe-1" target="zzlCp59lul93_jBRYsYe-6">
          <mxGeometry relative="1" as="geometry" />
        </mxCell>
        <mxCell id="zzlCp59lul93_jBRYsYe-11" style="edgeStyle=orthogonalEdgeStyle;rounded=0;orthogonalLoop=1;jettySize=auto;html=1;exitX=0.5;exitY=1;exitDx=0;exitDy=0;entryX=0.5;entryY=0;entryDx=0;entryDy=0;" edge="1" parent="1" source="zzlCp59lul93_jBRYsYe-1" target="zzlCp59lul93_jBRYsYe-5">
          <mxGeometry relative="1" as="geometry" />
        </mxCell>
        <mxCell id="zzlCp59lul93_jBRYsYe-12" style="edgeStyle=orthogonalEdgeStyle;rounded=0;orthogonalLoop=1;jettySize=auto;html=1;exitX=0.5;exitY=1;exitDx=0;exitDy=0;entryX=0.5;entryY=0;entryDx=0;entryDy=0;" edge="1" parent="1" source="zzlCp59lul93_jBRYsYe-1" target="zzlCp59lul93_jBRYsYe-8">
          <mxGeometry relative="1" as="geometry" />
        </mxCell>
        <mxCell id="zzlCp59lul93_jBRYsYe-15" style="edgeStyle=orthogonalEdgeStyle;rounded=0;orthogonalLoop=1;jettySize=auto;html=1;exitX=0.5;exitY=1;exitDx=0;exitDy=0;entryX=0.5;entryY=0;entryDx=0;entryDy=0;" edge="1" parent="1" source="zzlCp59lul93_jBRYsYe-1" target="zzlCp59lul93_jBRYsYe-14">
          <mxGeometry relative="1" as="geometry" />
        </mxCell>
        <mxCell id="zzlCp59lul93_jBRYsYe-1" value="TEST" style="rounded=1;whiteSpace=wrap;html=1;" vertex="1" parent="1">
          <mxGeometry x="360" y="80" width="120" height="40" as="geometry" />
        </mxCell>
        <mxCell id="zzlCp59lul93_jBRYsYe-2" value="Title" style="rounded=1;whiteSpace=wrap;html=1;" vertex="1" parent="1">
          <mxGeometry x="360" y="160" width="120" height="40" as="geometry" />
        </mxCell>
        <mxCell id="zzlCp59lul93_jBRYsYe-5" value="Author_id" style="rounded=1;whiteSpace=wrap;html=1;" vertex="1" parent="1">
          <mxGeometry x="200" y="160" width="120" height="40" as="geometry" />
        </mxCell>
        <mxCell id="zzlCp59lul93_jBRYsYe-6" value="Questions (Array of Objects)" style="rounded=1;whiteSpace=wrap;html=1;" vertex="1" parent="1">
          <mxGeometry x="520" y="160" width="120" height="40" as="geometry" />
        </mxCell>
        <mxCell id="zzlCp59lul93_jBRYsYe-8" value="CreationDate" style="rounded=1;whiteSpace=wrap;html=1;" vertex="1" parent="1">
          <mxGeometry x="680" y="160" width="120" height="40" as="geometry" />
        </mxCell>
        <mxCell id="zzlCp59lul93_jBRYsYe-14" value="UpdationDate" style="rounded=1;whiteSpace=wrap;html=1;" vertex="1" parent="1">
          <mxGeometry x="840" y="160" width="120" height="40" as="geometry" />
        </mxCell>
        <mxCell id="zzlCp59lul93_jBRYsYe-18" value="Question (Obj)" style="rounded=1;whiteSpace=wrap;html=1;" vertex="1" parent="1">
          <mxGeometry x="520" y="240" width="120" height="40" as="geometry" />
        </mxCell>
        <mxCell id="zzlCp59lul93_jBRYsYe-19" value="Question number (Number)" style="rounded=1;whiteSpace=wrap;html=1;" vertex="1" parent="1">
          <mxGeometry x="520" y="320" width="120" height="40" as="geometry" />
        </mxCell>
        <mxCell id="zzlCp59lul93_jBRYsYe-20" value="Question answers (Array)&amp;nbsp;" style="rounded=1;whiteSpace=wrap;html=1;" vertex="1" parent="1">
          <mxGeometry x="520" y="400" width="120" height="40" as="geometry" />
        </mxCell>
        <mxCell id="zzlCp59lul93_jBRYsYe-22" value="Question right asnwer/s (Array)" style="rounded=1;whiteSpace=wrap;html=1;" vertex="1" parent="1">
          <mxGeometry x="520" y="480" width="120" height="40" as="geometry" />
        </mxCell>
        <mxCell id="zzlCp59lul93_jBRYsYe-29" style="edgeStyle=orthogonalEdgeStyle;rounded=0;orthogonalLoop=1;jettySize=auto;html=1;exitX=0.5;exitY=1;exitDx=0;exitDy=0;entryX=0.5;entryY=0;entryDx=0;entryDy=0;" edge="1" parent="1" source="zzlCp59lul93_jBRYsYe-23" target="zzlCp59lul93_jBRYsYe-24">
          <mxGeometry relative="1" as="geometry" />
        </mxCell>
        <mxCell id="zzlCp59lul93_jBRYsYe-30" style="edgeStyle=orthogonalEdgeStyle;rounded=0;orthogonalLoop=1;jettySize=auto;html=1;exitX=0.5;exitY=1;exitDx=0;exitDy=0;entryX=0.5;entryY=0;entryDx=0;entryDy=0;" edge="1" parent="1" source="zzlCp59lul93_jBRYsYe-23" target="zzlCp59lul93_jBRYsYe-25">
          <mxGeometry relative="1" as="geometry" />
        </mxCell>
        <mxCell id="zzlCp59lul93_jBRYsYe-31" style="edgeStyle=orthogonalEdgeStyle;rounded=0;orthogonalLoop=1;jettySize=auto;html=1;exitX=0.5;exitY=1;exitDx=0;exitDy=0;entryX=0.5;entryY=0;entryDx=0;entryDy=0;" edge="1" parent="1" source="zzlCp59lul93_jBRYsYe-23" target="zzlCp59lul93_jBRYsYe-26">
          <mxGeometry relative="1" as="geometry" />
        </mxCell>
        <mxCell id="zzlCp59lul93_jBRYsYe-32" style="edgeStyle=orthogonalEdgeStyle;rounded=0;orthogonalLoop=1;jettySize=auto;html=1;exitX=0.5;exitY=1;exitDx=0;exitDy=0;entryX=0.5;entryY=0;entryDx=0;entryDy=0;" edge="1" parent="1" source="zzlCp59lul93_jBRYsYe-23" target="zzlCp59lul93_jBRYsYe-27">
          <mxGeometry relative="1" as="geometry" />
        </mxCell>
        <mxCell id="zzlCp59lul93_jBRYsYe-33" style="edgeStyle=orthogonalEdgeStyle;rounded=0;orthogonalLoop=1;jettySize=auto;html=1;exitX=0.5;exitY=1;exitDx=0;exitDy=0;entryX=0.5;entryY=0;entryDx=0;entryDy=0;" edge="1" parent="1" source="zzlCp59lul93_jBRYsYe-23" target="zzlCp59lul93_jBRYsYe-28">
          <mxGeometry relative="1" as="geometry" />
        </mxCell>
        <mxCell id="zzlCp59lul93_jBRYsYe-23" value="USER" style="rounded=1;whiteSpace=wrap;html=1;" vertex="1" parent="1">
          <mxGeometry x="-200" y="80" width="120" height="40" as="geometry" />
        </mxCell>
        <mxCell id="zzlCp59lul93_jBRYsYe-24" value="Id" style="rounded=1;whiteSpace=wrap;html=1;" vertex="1" parent="1">
          <mxGeometry x="-200" y="160" width="120" height="40" as="geometry" />
        </mxCell>
        <mxCell id="zzlCp59lul93_jBRYsYe-25" value="TEST" style="rounded=1;whiteSpace=wrap;html=1;" vertex="1" parent="1">
          <mxGeometry x="-30" y="160" width="120" height="40" as="geometry" />
        </mxCell>
        <mxCell id="zzlCp59lul93_jBRYsYe-26" value="Real Name" style="rounded=1;whiteSpace=wrap;html=1;" vertex="1" parent="1">
          <mxGeometry x="-360" y="160" width="120" height="40" as="geometry" />
        </mxCell>
        <mxCell id="zzlCp59lul93_jBRYsYe-27" value="Email" style="rounded=1;whiteSpace=wrap;html=1;" vertex="1" parent="1">
          <mxGeometry x="-520" y="160" width="120" height="40" as="geometry" />
        </mxCell>
        <mxCell id="zzlCp59lul93_jBRYsYe-28" value="TEST" style="rounded=1;whiteSpace=wrap;html=1;" vertex="1" parent="1">
          <mxGeometry x="-680" y="160" width="120" height="40" as="geometry" />
        </mxCell>
        <mxCell id="zzlCp59lul93_jBRYsYe-36" style="edgeStyle=orthogonalEdgeStyle;rounded=0;orthogonalLoop=1;jettySize=auto;html=1;exitX=0.5;exitY=1;exitDx=0;exitDy=0;entryX=0.5;entryY=0;entryDx=0;entryDy=0;" edge="1" parent="1" source="zzlCp59lul93_jBRYsYe-34" target="zzlCp59lul93_jBRYsYe-35">
          <mxGeometry relative="1" as="geometry" />
        </mxCell>
        <mxCell id="zzlCp59lul93_jBRYsYe-34" value="ANSWER" style="rounded=1;whiteSpace=wrap;html=1;" vertex="1" parent="1">
          <mxGeometry x="-200" y="280" width="120" height="40" as="geometry" />
        </mxCell>
        <mxCell id="zzlCp59lul93_jBRYsYe-35" value="Id" style="rounded=1;whiteSpace=wrap;html=1;" vertex="1" parent="1">
          <mxGeometry x="-200" y="360" width="120" height="40" as="geometry" />
        </mxCell>
        <mxCell id="zzlCp59lul93_jBRYsYe-37" value="Test_Id" style="rounded=1;whiteSpace=wrap;html=1;" vertex="1" parent="1">
          <mxGeometry x="-40" y="360" width="120" height="40" as="geometry" />
        </mxCell>
        <mxCell id="zzlCp59lul93_jBRYsYe-38" value="User_Id" style="rounded=1;whiteSpace=wrap;html=1;" vertex="1" parent="1">
          <mxGeometry x="-360" y="360" width="120" height="40" as="geometry" />
        </mxCell>
        <mxCell id="zzlCp59lul93_jBRYsYe-39" value="Answers (Array of obj)" style="rounded=1;whiteSpace=wrap;html=1;" vertex="1" parent="1">
          <mxGeometry x="-520" y="360" width="120" height="40" as="geometry" />
        </mxCell>
        <mxCell id="zzlCp59lul93_jBRYsYe-40" value="Question Number" style="rounded=1;whiteSpace=wrap;html=1;" vertex="1" parent="1">
          <mxGeometry x="-520" y="440" width="120" height="40" as="geometry" />
        </mxCell>
        <mxCell id="zzlCp59lul93_jBRYsYe-41" value="Asnwer Number (or asnwer)" style="rounded=1;whiteSpace=wrap;html=1;" vertex="1" parent="1">
          <mxGeometry x="-520" y="520" width="120" height="40" as="geometry" />
        </mxCell>
      </root>
    </mxGraphModel>
  </diagram>
</mxfile>
